<svg width="32" height="32" viewBox="0 0 48 48" fill="none" xmlns="http://www.w3.org/2000/svg">
<circle cx="24" cy="24" r="24" fill="#082032"/>
<path d="M38.5297 9.30524C38.4484 8.92712 38.0746 8.55328 37.6952 8.47211C35.4943 8 33.771 8 32.0552 8C24.9983 8 20.7664 11.7737 17.6071 16.75H10.483C9.36553 16.7511 8.05242 17.5618 7.55134 18.5605L4.17197 25.3152C4.06753 25.5456 4.00912 25.7941 4 26.0469C4.00016 26.482 4.17311 26.8993 4.48084 27.2069C4.78857 27.5146 5.20588 27.6874 5.64102 27.6875H12.7374L11.2011 29.2234C10.4242 30.0001 10.3127 31.4286 11.2011 32.3167L14.6809 35.7966C15.4435 36.5614 16.879 36.696 17.776 35.7966L19.3123 34.2607V41.3594C19.3125 41.7945 19.4855 42.2118 19.7932 42.5194C20.1009 42.8271 20.5182 42.9999 20.9534 43C21.2062 42.9906 21.4548 42.9322 21.6853 42.828L28.4343 39.4517C29.4343 38.9529 30.2463 37.6402 30.2463 36.5219V29.3826C35.2091 26.2167 38.9987 21.972 38.9987 14.9524C39.0051 13.2295 39.0051 11.5066 38.5297 9.30524ZM30.2528 19.4844C29.712 19.4842 29.1834 19.3238 28.7338 19.0232C28.2842 18.7227 27.9339 18.2956 27.727 17.7959C27.5201 17.2963 27.4661 16.7465 27.5717 16.2161C27.6772 15.6858 27.9377 15.1986 28.3202 14.8163C28.7026 14.4339 29.1898 14.1736 29.7202 14.0681C30.2506 13.9627 30.8004 14.0169 31.3 14.2238C31.7996 14.4308 32.2266 14.7813 32.527 15.2309C32.8274 15.6806 32.9878 16.2092 32.9878 16.75C32.9874 17.4752 32.6991 18.1705 32.1862 18.6833C31.6734 19.196 30.9779 19.4841 30.2528 19.4844V19.4844Z" fill="url(#paint0_linear_34_12)"/>
<defs>
<linearGradient id="paint0_linear_34_12" x1="21.5" y1="8" x2="21.5" y2="43" gradientUnits="userSpaceOnUse">
<stop stop-color="#FF360F"/>
<stop offset="1" stop-color="#FF833E"/>
</linearGradient>
</defs>
</svg>
