<svg xmlns="http://www.w3.org/2000/svg" version="1.1" xmlns:xlink="http://www.w3.org/1999/xlink" xmlns:svgjs="http://svgjs.com/svgjs" width="1440" height="4208" preserveAspectRatio="none" viewBox="0 0 1440 4208"><g mask="url(&quot;#SvgjsMask5137&quot;)" fill="none"><rect width="900" height="900" clip-path="url(&quot;#SvgjsClipPath5138&quot;)" x="242.79" y="936.27" fill="url(#SvgjsPattern5139)" transform="rotate(113.22, 692.79, 1386.27)"></rect><path d="M1423.42 3388.04a5.6 5.6 0 1 0-11.03-1.92 5.6 5.6 0 1 0 11.03 1.92zM1407.66 3385.29a5.6 5.6 0 1 0-11.03-1.92 5.6 5.6 0 1 0 11.03 1.92zM1391.9 3382.55a5.6 5.6 0 1 0-11.04-1.92 5.6 5.6 0 1 0 11.04 1.92zM1376.14 3379.8a5.6 5.6 0 1 0-11.04-1.92 5.6 5.6 0 1 0 11.04 1.92zM1457.69 3377.77a5.6 5.6 0 1 0-11.03-1.93 5.6 5.6 0 1 0 11.03 1.93zM1441.93 3375.02a5.6 5.6 0 1 0-11.03-1.92 5.6 5.6 0 1 0 11.03 1.92zM1426.17 3372.28a5.6 5.6 0 1 0-11.04-1.93 5.6 5.6 0 1 0 11.04 1.93zM1410.41 3369.53a5.6 5.6 0 1 0-11.04-1.92 5.6 5.6 0 1 0 11.04 1.92zM1491.96 3367.49a5.6 5.6 0 1 0-11.03-1.92 5.6 5.6 0 1 0 11.03 1.92zM1476.2 3364.75a5.6 5.6 0 1 0-11.03-1.92 5.6 5.6 0 1 0 11.03 1.92zM1460.44 3362a5.6 5.6 0 1 0-11.03-1.92 5.6 5.6 0 1 0 11.03 1.92zM1444.68 3359.26a5.6 5.6 0 1 0-11.04-1.92 5.6 5.6 0 1 0 11.04 1.92z" fill="rgba(0, 28, 44, 1)"></path><path d="M1416.36 3382.85 L1570.05 3418.06L1420.364479798849 3473.295520201151z" stroke="rgba(211, 183, 20, 0.4)" stroke-width="1.61" stroke-dasharray="3, 3"></path><circle r="170.9564632040019" cx="1362.13" cy="62.22" fill="rgba(0, 28, 44, 1)"></circle><rect width="240.67999999999998" height="240.67999999999998" clip-path="url(&quot;#SvgjsClipPath5140&quot;)" x="303.48" y="2276.35" fill="url(#SvgjsPattern5141)" transform="rotate(19.29, 423.82, 2396.69)"></rect><circle r="120" cx="1117.35" cy="2897.24" stroke="rgba(0, 28, 44, 1)" stroke-width="1"></circle><circle r="120" cx="589.21" cy="335.22" fill="rgba(0, 28, 44, 1)"></circle><path d="M839.91 2774.89L852.64 2773.54 856.76 2785.66 869.5 2784.3 873.62 2796.43 886.35 2795.07 890.47 2807.19M835.6 2781.64L848.33 2780.28 852.46 2792.4 865.19 2791.04 869.31 2803.17 882.04 2801.81 886.16 2813.94" stroke="rgba(255, 76, 41, 0.4)" stroke-width="1.96" stroke-dasharray="3, 2"></path><path d="M1363.23 1823.76 L1265.77 1820.3700000000001L1266.8998531590485 1869.6651468409516z" fill="rgba(0, 28, 44, 1)"></path><path d="M222.03 2281.31 L246.35 2158.25L307.33065016498466 2292.920650164984z" fill="rgba(255, 76, 41, 0.1)"></path><rect width="912" height="912" clip-path="url(&quot;#SvgjsClipPath5142&quot;)" x="-339.77" y="-58.67" fill="url(#SvgjsPattern5143)" transform="rotate(220.27, 116.23, 397.33)"></rect><rect width="682" height="682" clip-path="url(&quot;#SvgjsClipPath5144&quot;)" x="283.08" y="1537.24" fill="url(#SvgjsPattern5145)" transform="rotate(321.32, 624.08, 1878.24)"></rect><rect width="82.8" height="82.8" clip-path="url(&quot;#SvgjsClipPath5146&quot;)" x="682.43" y="120.13" fill="url(#SvgjsPattern5147)" transform="rotate(175.94, 723.83, 161.53)"></rect><path d="M574.73 1081.21 L198.12 1078.8600000000001L186.27187941156777 1280.1881205884324z" fill="rgba(255, 76, 41, 0.4)"></path></g><defs><mask id="SvgjsMask5137"><rect width="1440" height="4208" fill="#ffffff"></rect></mask><pattern x="0" y="0" width="6" height="6" patternUnits="userSpaceOnUse" id="SvgjsPattern5139"><path d="M3 1L3 5M1 3L5 3" stroke="rgba(255, 76, 41, 0.4)" fill="none" stroke-width="1"></path></pattern><clipPath id="SvgjsClipPath5138"><circle r="225" cx="692.79" cy="1386.27"></circle></clipPath><pattern x="0" y="0" width="10.94" height="10.94" patternUnits="userSpaceOnUse" id="SvgjsPattern5141"><path d="M0 10.94L5.47 0L10.94 10.94" stroke="rgba(211, 183, 20, 0.4)" fill="none"></path></pattern><clipPath id="SvgjsClipPath5140"><circle r="60.169999999999995" cx="423.82" cy="2396.69"></circle></clipPath><pattern x="0" y="0" width="6" height="6" patternUnits="userSpaceOnUse" id="SvgjsPattern5143"><path d="M3 1L3 5M1 3L5 3" stroke="rgba(0, 28, 44, 1)" fill="none" stroke-width="1"></path></pattern><clipPath id="SvgjsClipPath5142"><circle r="228" cx="116.23" cy="397.33"></circle></clipPath><pattern x="0" y="0" width="6.82" height="6.82" patternUnits="userSpaceOnUse" id="SvgjsPattern5145"><path d="M0 6.82L3.41 0L6.82 6.82" stroke="rgba(0, 28, 44, 1)" fill="none"></path></pattern><clipPath id="SvgjsClipPath5144"><circle r="170.5" cx="624.08" cy="1878.24"></circle></clipPath><pattern x="0" y="0" width="8.28" height="8.28" patternUnits="userSpaceOnUse" id="SvgjsPattern5147"><path d="M0 8.28L4.14 0L8.28 8.28" stroke="rgba(0, 28, 44, 1)" fill="none"></path></pattern><clipPath id="SvgjsClipPath5146"><circle r="20.7" cx="723.83" cy="161.53"></circle></clipPath></defs></svg>