<svg width="36" height="37" viewBox="0 0 36 37" fill="none" xmlns="http://www.w3.org/2000/svg">
<path d="M32.1429 0.0251465H3.85714C1.72768 0.0251465 0 1.79618 0 3.97907V32.9745C0 35.1574 1.72768 36.9285 3.85714 36.9285H32.1429C34.2723 36.9285 36 35.1574 36 32.9745V3.97907C36 1.79618 34.2723 0.0251465 32.1429 0.0251465ZM22.283 31.6319C21.608 31.7554 21.3589 31.3271 21.3589 30.9729C21.3589 30.528 21.375 28.2545 21.375 26.4176C21.375 25.1326 20.9571 24.3171 20.467 23.8887C23.4402 23.551 26.5741 23.1309 26.5741 17.8672C26.5741 16.368 26.0518 15.6184 25.2 14.6547C25.3366 14.3005 25.7946 12.8425 25.0634 10.9479C23.9464 10.5937 21.3911 12.4224 21.3911 12.4224C20.3304 12.1176 19.1812 11.9611 18.0482 11.9611C16.9152 11.9611 15.7661 12.1176 14.7054 12.4224C14.7054 12.4224 12.15 10.5937 11.033 10.9479C10.3018 12.8342 10.7518 14.2922 10.8964 14.6547C10.0446 15.6184 9.64286 16.368 9.64286 17.8672C9.64286 23.1062 12.6402 23.551 15.6134 23.8887C15.2277 24.243 14.8821 24.8525 14.7616 25.7257C13.9982 26.0799 12.0455 26.6894 10.8804 24.5807C10.1491 23.2792 8.83125 23.1721 8.83125 23.1721C7.52946 23.1556 8.74286 24.0123 8.74286 24.0123C9.61071 24.4242 10.2214 26.0057 10.2214 26.0057C11.0009 28.4522 14.7295 27.6285 14.7295 27.6285C14.7295 28.7735 14.7455 30.6351 14.7455 30.9729C14.7455 31.3271 14.5045 31.7554 13.8214 31.6319C8.51786 29.8114 4.80536 24.6383 4.80536 18.5921C4.80536 11.0302 10.4464 5.28881 17.8232 5.28881C25.2 5.28881 31.1786 11.0302 31.1786 18.5921C31.1866 24.6383 27.5866 29.8196 22.283 31.6319ZM14.4 26.5988C14.2473 26.6318 14.1027 26.5659 14.0866 26.4588C14.0705 26.3352 14.175 26.2282 14.3277 26.1952C14.4804 26.1787 14.625 26.2446 14.6411 26.3517C14.6652 26.4588 14.5607 26.5659 14.4 26.5988ZM13.6366 26.5247C13.6366 26.6318 13.5161 26.7224 13.3554 26.7224C13.1786 26.7389 13.058 26.6483 13.058 26.5247C13.058 26.4176 13.1786 26.327 13.3393 26.327C13.492 26.3105 13.6366 26.4011 13.6366 26.5247ZM12.5357 26.4341C12.5036 26.5412 12.3429 26.5906 12.2062 26.5412C12.0536 26.5082 11.9491 26.3847 11.9813 26.2776C12.0134 26.1705 12.1741 26.1211 12.3107 26.154C12.4714 26.2034 12.5759 26.327 12.5357 26.4341ZM11.5473 25.9893C11.475 26.0799 11.3223 26.0634 11.2018 25.9398C11.0812 25.8328 11.0491 25.6763 11.1295 25.6021C11.2018 25.5115 11.3545 25.528 11.475 25.6515C11.5795 25.7586 11.6196 25.9234 11.5473 25.9893ZM10.8161 25.2397C10.7438 25.2891 10.6071 25.2397 10.5187 25.1161C10.4304 24.9925 10.4304 24.8525 10.5187 24.7949C10.6071 24.7207 10.7438 24.7784 10.8161 24.9019C10.9045 25.0255 10.9045 25.1738 10.8161 25.2397ZM10.2938 24.4406C10.2214 24.5148 10.1009 24.4736 10.0125 24.3912C9.92411 24.2841 9.90804 24.1606 9.98036 24.1029C10.0527 24.0288 10.1732 24.07 10.2616 24.1523C10.35 24.2594 10.3661 24.383 10.2938 24.4406ZM9.75536 23.8311C9.72321 23.9052 9.61875 23.9217 9.53036 23.864C9.42589 23.8146 9.37768 23.724 9.40982 23.6499C9.44196 23.6004 9.53036 23.5757 9.63482 23.6169C9.73929 23.6746 9.7875 23.7652 9.75536 23.8311Z" fill="url(#paint0_linear_13_409)"/>
<defs>
<linearGradient id="paint0_linear_13_409" x1="18" y1="0.0251465" x2="18" y2="36.9285" gradientUnits="userSpaceOnUse">
<stop stop-color="#FF360F"/>
<stop offset="1" stop-color="#FF833E"/>
</linearGradient>
</defs>
</svg>
