<svg width="39" height="37" viewBox="0 0 39 37" fill="none" xmlns="http://www.w3.org/2000/svg">
<path d="M19.0588 14.083C18.1613 14.0833 17.284 14.3413 16.5379 14.8243C15.7918 15.3073 15.2104 15.9936 14.8671 16.7965C14.5239 17.5994 14.4343 18.4828 14.6096 19.335C14.7849 20.1872 15.2172 20.97 15.852 21.5843C16.4868 22.1986 17.2955 22.6169 18.1758 22.7863C19.0561 22.9557 19.9685 22.8686 20.7977 22.536C21.6269 22.2034 22.3356 21.6402 22.8342 20.9177C23.3328 20.1952 23.5989 19.3457 23.5989 18.4768C23.598 17.3115 23.1193 16.1942 22.2681 15.3703C21.4168 14.5464 20.2625 14.0834 19.0588 14.083ZM29.6697 10.7057C29.4386 10.1388 29.0897 9.62398 28.6447 9.19307C28.1996 8.76217 27.6678 8.42439 27.0823 8.20072C25.2955 7.51784 21.0413 7.67105 19.0588 7.67105C17.0764 7.67105 12.8264 7.51207 11.0346 8.20072C10.449 8.42439 9.91725 8.76217 9.47216 9.19307C9.02707 9.62398 8.67819 10.1388 8.44715 10.7057C7.74265 12.4355 7.90006 16.5583 7.90006 18.476C7.90006 20.3936 7.74265 24.5115 8.45055 26.2471C8.68159 26.814 9.03048 27.3288 9.47556 27.7597C9.92065 28.1906 10.4524 28.5284 11.038 28.7521C12.8247 29.435 17.0789 29.2817 19.0622 29.2817C21.0456 29.2817 25.2938 29.4407 27.0857 28.7521C27.6712 28.5284 28.203 28.1906 28.6481 27.7597C29.0932 27.3288 29.442 26.814 29.6731 26.2471C30.3835 24.5173 30.2202 20.3945 30.2202 18.4768C30.2202 16.5592 30.3835 12.4421 29.6731 10.7065L29.6697 10.7057ZM19.0588 25.2314C17.6789 25.2314 16.33 24.8353 15.1827 24.0931C14.0353 23.3509 13.1411 22.2959 12.613 21.0617C12.085 19.8274 11.9468 18.4693 12.216 17.159C12.4852 15.8488 13.1497 14.6452 14.1254 13.7006C15.1012 12.7559 16.3443 12.1126 17.6977 11.852C19.0511 11.5913 20.4539 11.7251 21.7288 12.2363C23.0036 12.7476 24.0933 13.6133 24.8599 14.7241C25.6265 15.8349 26.0357 17.1409 26.0357 18.4768C26.0369 19.3641 25.8572 20.243 25.5069 21.063C25.1567 21.883 24.6428 22.628 23.9947 23.2555C23.3467 23.8829 22.5771 24.3804 21.7301 24.7195C20.8831 25.0585 19.9754 25.2325 19.0588 25.2314ZM26.3233 13.0154C26.0012 13.0156 25.6863 12.9233 25.4183 12.7501C25.1504 12.577 24.9416 12.3308 24.8182 12.0427C24.6948 11.7547 24.6624 11.4376 24.7251 11.1317C24.7879 10.8258 24.9429 10.5448 25.1706 10.3243C25.3984 10.1037 25.6885 9.95344 26.0044 9.89254C26.3204 9.83164 26.6479 9.86282 26.9455 9.98212C27.2431 10.1014 27.4975 10.3035 27.6765 10.5628C27.8554 10.8221 27.951 11.127 27.951 11.4388C27.9519 11.6459 27.9105 11.8511 27.8293 12.0427C27.7481 12.2343 27.6286 12.4085 27.4777 12.5553C27.3268 12.7021 27.1474 12.8186 26.9499 12.8981C26.7524 12.9776 26.5406 13.0186 26.3267 13.0187L26.3233 13.0154ZM34.0336 0.0251465H4.08404C3.00088 0.0251465 1.96209 0.44172 1.19619 1.18323C0.430281 1.92473 0 2.93043 0 3.97907L0 32.9745C0 34.0232 0.430281 35.0289 1.19619 35.7704C1.96209 36.5119 3.00088 36.9285 4.08404 36.9285H34.0336C35.1168 36.9285 36.1556 36.5119 36.9215 35.7704C37.6874 35.0289 38.1177 34.0232 38.1177 32.9745V3.97907C38.1177 2.93043 37.6874 1.92473 36.9215 1.18323C36.1556 0.44172 35.1168 0.0251465 34.0336 0.0251465ZM32.577 23.9135C32.4672 26.0247 31.9695 27.8954 30.3776 29.4325C28.7857 30.9696 26.8551 31.4613 24.6769 31.5618C22.4299 31.6846 15.6929 31.6846 13.4458 31.5618C11.2651 31.4556 9.33968 30.9729 7.7452 29.4325C6.15073 27.8921 5.64958 26.0206 5.54578 23.9135C5.41901 21.7372 5.41901 15.214 5.54578 13.0402C5.65554 10.9289 6.14733 9.05822 7.7452 7.52113C9.34308 5.98404 11.2736 5.49804 13.4458 5.39755C15.6929 5.27481 22.4299 5.27481 24.6769 5.39755C26.8576 5.50381 28.7891 5.98652 30.3776 7.5269C31.9661 9.06728 32.4732 10.9388 32.577 13.05C32.7038 15.2181 32.7038 21.7355 32.577 23.9135Z" fill="url(#paint0_linear_13_411)"/>
<defs>
<linearGradient id="paint0_linear_13_411" x1="19.0588" y1="0.0251465" x2="19.0588" y2="36.9285" gradientUnits="userSpaceOnUse">
<stop stop-color="#FF360F"/>
<stop offset="1" stop-color="#FF833E"/>
</linearGradient>
</defs>
</svg>
