<svg width="36" height="37" viewBox="0 0 36 37" fill="none" xmlns="http://www.w3.org/2000/svg">
<path d="M33.4286 0H2.56339C1.14911 0 0 1.19442 0 2.66068V34.2429C0 35.7091 1.14911 36.9036 2.56339 36.9036H33.4286C34.8429 36.9036 36 35.7091 36 34.2429V2.66068C36 1.19442 34.8429 0 33.4286 0ZM10.8804 31.6316H5.54464V14.0201H10.8884V31.6316H10.8804ZM8.2125 11.6147C6.50089 11.6147 5.11875 10.1897 5.11875 8.44334C5.11875 6.69701 6.50089 5.27194 8.2125 5.27194C9.91607 5.27194 11.3062 6.69701 11.3062 8.44334C11.3062 10.1979 9.92411 11.6147 8.2125 11.6147ZM30.8812 31.6316H25.5455V23.0647C25.5455 21.0219 25.5054 18.3941 22.7732 18.3941C19.9929 18.3941 19.567 20.6182 19.567 22.9165V31.6316H14.2313V14.0201H19.35V16.4254H19.4223C20.1375 15.0415 21.8813 13.5835 24.4768 13.5835C29.8768 13.5835 30.8812 17.2326 30.8812 21.9774V31.6316Z" fill="url(#paint0_linear_11_370)"/>
<defs>
<linearGradient id="paint0_linear_11_370" x1="18" y1="0" x2="18" y2="36.9036" gradientUnits="userSpaceOnUse">
<stop stop-color="#FF360F"/>
<stop offset="1" stop-color="#FF833E"/>
</linearGradient>
</defs>
</svg>
