<svg width="72" height="40" viewBox="0 0 82 47" fill="none" xmlns="http://www.w3.org/2000/svg">
<path d="M35.248 36.272C35.248 40.1973 35.3973 43.44 35.696 46C32.7947 45.872 27.9093 45.808 21.04 45.808C11.7387 45.808 4.784 45.872 0.175995 46V44.72C1.58399 44.6347 2.60799 44.464 3.24799 44.208C3.93066 43.952 4.37866 43.4613 4.592 42.736C4.848 42.0107 4.976 40.8373 4.976 39.216V7.47198C4.976 5.85065 4.848 4.67732 4.592 3.95199C4.37866 3.22665 3.93066 2.73599 3.24799 2.47999C2.60799 2.22399 1.58399 2.05332 0.175995 1.96799V0.687988C4.784 0.815987 11.7387 0.879986 21.04 0.879986C27.312 0.879986 31.7707 0.815987 34.416 0.687988C34.1173 4.22932 33.968 7.38666 33.968 10.16C33.968 12.0373 34.032 13.488 34.16 14.512H32.688C32.048 9.94665 30.896 6.74665 29.232 4.91199C27.568 3.07732 25.2213 2.15998 22.192 2.15998H19.568C18.2453 2.15998 17.2853 2.26665 16.688 2.47999C16.0907 2.69332 15.6853 3.11999 15.472 3.75999C15.2587 4.35732 15.152 5.33865 15.152 6.70399V22.576H17.2C19.4613 22.576 21.168 21.744 22.32 20.08C23.5147 18.416 24.3467 16.432 24.816 14.128H26.288C26.16 15.92 26.096 17.9253 26.096 20.144V23.216C26.096 25.392 26.224 28.4213 26.48 32.304H25.008C24.112 26.672 21.5093 23.856 17.2 23.856H15.152V39.984C15.152 41.3493 15.2587 42.352 15.472 42.992C15.6853 43.5893 16.0907 43.9947 16.688 44.208C17.2853 44.4213 18.2453 44.528 19.568 44.528H22.704C25.7333 44.528 28.1653 43.504 30 41.456C31.8773 39.3653 33.2 35.8453 33.968 30.896H35.44C35.312 32.304 35.248 34.096 35.248 36.272Z" fill="white"/>
<path d="M76.5905 0.879986C78.5532 0.879986 80.1745 0.815987 81.4545 0.687988V1.96799C80.3878 2.35199 79.3425 3.16265 78.3185 4.39999C77.2945 5.63732 76.3772 7.36532 75.5665 9.58399L62.0625 46.128C61.5932 46.0853 60.8465 46.064 59.8225 46.064C58.8412 46.064 58.1158 46.0853 57.6465 46.128L41.3265 6.06399C40.7718 4.65599 40.1318 3.63199 39.4065 2.99199C38.6812 2.35199 37.9772 2.01065 37.2945 1.96799V0.687988C39.8545 0.815987 43.0972 0.879986 47.0225 0.879986C51.4172 0.879986 54.6598 0.815987 56.7505 0.687988V1.96799C55.1292 2.05332 53.9772 2.24532 53.2945 2.54399C52.6118 2.84265 52.2705 3.43999 52.2705 4.33599C52.2705 5.06132 52.5265 6.06399 53.0385 7.34399L64.3025 36.016L72.1745 14.768C73.3692 11.4827 73.9665 8.87999 73.9665 6.95999C73.9665 5.25332 73.4972 4.01599 72.5585 3.24799C71.6625 2.47999 70.3398 2.05332 68.5905 1.96799V0.687988C71.4918 0.815987 74.1585 0.879986 76.5905 0.879986Z" fill="white"/>
</svg>
