<svg width="240" height="47" viewBox="0 0 303 47" fill="none" xmlns="http://www.w3.org/2000/svg">
<path d="M31.0683 31.3239C31.0683 34.7793 31.2006 37.6338 31.4652 39.8873C28.895 39.7746 24.5674 39.7183 18.4822 39.7183C10.2427 39.7183 4.08197 39.7746 0 39.8873V38.7606C1.24727 38.6854 2.15437 38.5352 2.72131 38.3099C3.32605 38.0845 3.7229 37.6526 3.91188 37.0141C4.13866 36.3756 4.25205 35.3427 4.25205 33.9155V5.97183C4.25205 4.5446 4.13866 3.51174 3.91188 2.87324C3.7229 2.23474 3.32605 1.80282 2.72131 1.57746C2.15437 1.35211 1.24727 1.20188 0 1.12676V0C4.08197 0.112675 10.2427 0.169012 18.4822 0.169012C24.0382 0.169012 27.9879 0.112675 30.3313 0C30.0667 3.11737 29.9344 5.89671 29.9344 8.33803C29.9344 9.99061 29.9911 11.2676 30.1045 12.169H28.8005C28.2336 8.15023 27.2131 5.33333 25.7391 3.71831C24.265 2.10328 22.1862 1.29577 19.5027 1.29577H17.1783C16.0066 1.29577 15.1562 1.38967 14.627 1.57746C14.0979 1.76526 13.7388 2.14084 13.5499 2.70422C13.3609 3.23005 13.2664 4.0939 13.2664 5.29577V19.2676H15.0806C17.0838 19.2676 18.5956 18.5352 19.6161 17.0704C20.6744 15.6056 21.4114 13.8592 21.8272 11.831H23.1311C23.0177 13.4084 22.9611 15.1737 22.9611 17.1268V19.831C22.9611 21.7465 23.0744 24.4131 23.3012 27.831H21.9973C21.2035 22.8732 18.898 20.3944 15.0806 20.3944H13.2664V34.5916C13.2664 35.7934 13.3609 36.6761 13.5499 37.2394C13.7388 37.7653 14.0979 38.1221 14.627 38.3099C15.1562 38.4977 16.0066 38.5916 17.1783 38.5916H19.9563C22.6398 38.5916 24.7942 37.6901 26.4194 35.8873C28.0824 34.047 29.2541 30.9484 29.9344 26.5916H31.2384C31.125 27.831 31.0683 29.4085 31.0683 31.3239Z" fill="#E5E5E5"/>
<path d="M67.6913 0.169012C69.4299 0.169012 70.8661 0.112675 72 0V1.12676C71.0551 1.46479 70.1291 2.1784 69.222 3.2676C68.3149 4.35681 67.5023 5.87793 66.7842 7.83099L54.8217 40C54.406 39.9624 53.7445 39.9437 52.8374 39.9437C51.9681 39.9437 51.3256 39.9624 50.9098 40L36.4529 4.73239C35.9615 3.49296 35.3946 2.59155 34.7521 2.02817C34.1095 1.46479 33.4859 1.16432 32.8812 1.12676V0C35.1489 0.112675 38.0214 0.169012 41.4986 0.169012C45.3916 0.169012 48.2641 0.112675 50.1161 0V1.12676C48.6799 1.20188 47.6594 1.37089 47.0547 1.6338C46.4499 1.89671 46.1476 2.42253 46.1476 3.21127C46.1476 3.84977 46.3743 4.73239 46.8279 5.85915L56.806 31.0986L63.7794 12.3944C64.8377 9.50235 65.3668 7.21127 65.3668 5.52113C65.3668 4.01878 64.951 2.92958 64.1195 2.25352C63.3258 1.57746 62.1542 1.20188 60.6045 1.12676V0C63.1746 0.112675 65.5369 0.169012 67.6913 0.169012Z" fill="#E5E5E5"/>
<path d="M98 1.99999H103V47H98V1.99999Z" fill="#E5E5E5"/>
<path d="M144.352 15.464L144.088 17.288H137.68V22.688H143.248V24.512H137.68V30.176H144.544V32H135.4V15.464H144.352Z" fill="#E5E5E5"/>
<path d="M160.585 19.064C161.625 19.064 162.457 19.416 163.081 20.12C163.705 20.808 164.017 21.744 164.017 22.928V32H161.809V23.24C161.809 21.608 161.217 20.792 160.033 20.792C159.409 20.792 158.881 20.976 158.449 21.344C158.017 21.696 157.553 22.256 157.057 23.024V32H154.849V23.24C154.849 21.608 154.257 20.792 153.073 20.792C152.433 20.792 151.897 20.976 151.465 21.344C151.033 21.712 150.577 22.272 150.097 23.024V32H147.889V19.352H149.785L149.977 21.2C150.921 19.776 152.137 19.064 153.625 19.064C154.409 19.064 155.073 19.264 155.617 19.664C156.177 20.064 156.577 20.624 156.817 21.344C157.313 20.608 157.857 20.048 158.449 19.664C159.057 19.264 159.769 19.064 160.585 19.064Z" fill="#E5E5E5"/>
<path d="M170.676 19.352V32H168.467V19.352H170.676ZM169.548 13.28C170.012 13.28 170.388 13.424 170.676 13.712C170.964 14 171.107 14.36 171.107 14.792C171.107 15.224 170.964 15.584 170.676 15.872C170.388 16.144 170.012 16.28 169.548 16.28C169.1 16.28 168.731 16.144 168.443 15.872C168.155 15.584 168.012 15.224 168.012 14.792C168.012 14.36 168.155 14 168.443 13.712C168.731 13.424 169.1 13.28 169.548 13.28Z" fill="#E5E5E5"/>
<path d="M185.033 14.264V32H183.089L182.873 30.248C182.457 30.888 181.937 31.392 181.313 31.76C180.689 32.112 179.993 32.288 179.225 32.288C177.721 32.288 176.545 31.696 175.697 30.512C174.865 29.328 174.449 27.736 174.449 25.736C174.449 24.44 174.649 23.288 175.049 22.28C175.449 21.272 176.025 20.488 176.777 19.928C177.529 19.352 178.409 19.064 179.417 19.064C180.713 19.064 181.849 19.584 182.825 20.624V14L185.033 14.264ZM179.705 30.536C180.377 30.536 180.953 30.384 181.433 30.08C181.913 29.76 182.377 29.288 182.825 28.664V22.472C182.409 21.928 181.961 21.52 181.481 21.248C181.017 20.96 180.489 20.816 179.897 20.816C178.921 20.816 178.161 21.224 177.617 22.04C177.089 22.856 176.825 24.072 176.825 25.688C176.825 27.32 177.073 28.536 177.569 29.336C178.065 30.136 178.777 30.536 179.705 30.536Z" fill="#E5E5E5"/>
<path d="M191.793 19.352V32H189.585V19.352H191.793ZM190.665 13.28C191.129 13.28 191.505 13.424 191.793 13.712C192.081 14 192.225 14.36 192.225 14.792C192.225 15.224 192.081 15.584 191.793 15.872C191.505 16.144 191.129 16.28 190.665 16.28C190.217 16.28 189.849 16.144 189.561 15.872C189.273 15.584 189.129 15.224 189.129 14.792C189.129 14.36 189.273 14 189.561 13.712C189.849 13.424 190.217 13.28 190.665 13.28Z" fill="#E5E5E5"/>
<path d="M201.11 19.064C202.886 19.064 204.262 19.656 205.238 20.84C206.23 22.024 206.726 23.632 206.726 25.664C206.726 26.976 206.502 28.136 206.054 29.144C205.606 30.136 204.958 30.912 204.11 31.472C203.262 32.016 202.254 32.288 201.086 32.288C199.31 32.288 197.926 31.696 196.934 30.512C195.942 29.328 195.446 27.72 195.446 25.688C195.446 24.376 195.67 23.224 196.118 22.232C196.566 21.224 197.214 20.448 198.062 19.904C198.91 19.344 199.926 19.064 201.11 19.064ZM201.11 20.84C198.918 20.84 197.822 22.456 197.822 25.688C197.822 28.904 198.91 30.512 201.086 30.512C203.262 30.512 204.35 28.896 204.35 25.664C204.35 22.448 203.27 20.84 201.11 20.84Z" fill="#E5E5E5"/>
<path d="M227.645 15.464L222.365 32H219.917L214.589 15.464H217.037L221.189 29.528L225.341 15.464H227.645Z" fill="#E5E5E5"/>
<path d="M237.62 29.048C237.62 29.56 237.708 29.944 237.884 30.2C238.06 30.44 238.324 30.624 238.676 30.752L238.172 32.288C237.516 32.208 236.988 32.024 236.588 31.736C236.188 31.448 235.892 31 235.7 30.392C234.852 31.656 233.596 32.288 231.932 32.288C230.684 32.288 229.7 31.936 228.98 31.232C228.26 30.528 227.9 29.608 227.9 28.472C227.9 27.128 228.38 26.096 229.34 25.376C230.316 24.656 231.692 24.296 233.468 24.296H235.412V23.36C235.412 22.464 235.196 21.824 234.764 21.44C234.332 21.056 233.668 20.864 232.772 20.864C231.844 20.864 230.708 21.088 229.364 21.536L228.812 19.928C230.38 19.352 231.836 19.064 233.18 19.064C234.668 19.064 235.78 19.432 236.516 20.168C237.252 20.888 237.62 21.92 237.62 23.264V29.048ZM232.436 30.632C233.7 30.632 234.692 29.976 235.412 28.664V25.76H233.756C231.42 25.76 230.252 26.624 230.252 28.352C230.252 29.104 230.436 29.672 230.804 30.056C231.172 30.44 231.716 30.632 232.436 30.632Z" fill="#E5E5E5"/>
<path d="M244.441 32.288C243.625 32.288 242.977 32.048 242.497 31.568C242.033 31.072 241.801 30.384 241.801 29.504V14.264L244.009 14V29.456C244.009 29.808 244.065 30.064 244.177 30.224C244.305 30.384 244.513 30.464 244.801 30.464C245.105 30.464 245.377 30.416 245.617 30.32L246.193 31.856C245.665 32.144 245.081 32.288 244.441 32.288Z" fill="#E5E5E5"/>
<path d="M258.387 25.304C258.387 25.672 258.371 26.048 258.339 26.432H250.275C250.371 27.824 250.723 28.848 251.331 29.504C251.939 30.16 252.723 30.488 253.683 30.488C254.291 30.488 254.851 30.4 255.363 30.224C255.875 30.048 256.411 29.768 256.971 29.384L257.931 30.704C256.587 31.76 255.115 32.288 253.515 32.288C251.755 32.288 250.379 31.712 249.387 30.56C248.411 29.408 247.923 27.824 247.923 25.808C247.923 24.496 248.131 23.336 248.547 22.328C248.979 21.304 249.587 20.504 250.371 19.928C251.171 19.352 252.107 19.064 253.179 19.064C254.859 19.064 256.147 19.616 257.043 20.72C257.939 21.824 258.387 23.352 258.387 25.304ZM256.203 24.656C256.203 23.408 255.955 22.456 255.459 21.8C254.963 21.144 254.219 20.816 253.227 20.816C251.419 20.816 250.435 22.144 250.275 24.8H256.203V24.656Z" fill="#E5E5E5"/>
<path d="M267.409 19.064C267.857 19.064 268.273 19.112 268.657 19.208L268.249 21.368C267.865 21.272 267.497 21.224 267.145 21.224C266.361 21.224 265.729 21.512 265.249 22.088C264.769 22.664 264.393 23.56 264.121 24.776V32H261.913V19.352H263.809L264.025 21.92C264.361 20.976 264.817 20.264 265.393 19.784C265.969 19.304 266.641 19.064 267.409 19.064Z" fill="#E5E5E5"/>
<path d="M279.996 25.304C279.996 25.672 279.98 26.048 279.948 26.432H271.884C271.98 27.824 272.332 28.848 272.94 29.504C273.548 30.16 274.332 30.488 275.292 30.488C275.9 30.488 276.46 30.4 276.972 30.224C277.484 30.048 278.02 29.768 278.58 29.384L279.54 30.704C278.196 31.76 276.724 32.288 275.124 32.288C273.364 32.288 271.988 31.712 270.996 30.56C270.02 29.408 269.532 27.824 269.532 25.808C269.532 24.496 269.74 23.336 270.156 22.328C270.588 21.304 271.196 20.504 271.98 19.928C272.78 19.352 273.716 19.064 274.788 19.064C276.468 19.064 277.756 19.616 278.652 20.72C279.548 21.824 279.996 23.352 279.996 25.304ZM277.812 24.656C277.812 23.408 277.564 22.456 277.068 21.8C276.572 21.144 275.828 20.816 274.836 20.816C273.028 20.816 272.044 22.144 271.884 24.8H277.812V24.656Z" fill="#E5E5E5"/>
<path d="M289.906 31.424C289.074 32 288.13 32.288 287.074 32.288C286.002 32.288 285.162 31.984 284.554 31.376C283.962 30.752 283.666 29.856 283.666 28.688V21.056H281.458V19.352H283.666V16.496L285.874 16.232V19.352H288.874L288.634 21.056H285.874V28.592C285.874 29.248 285.986 29.728 286.21 30.032C286.45 30.32 286.842 30.464 287.386 30.464C287.882 30.464 288.442 30.296 289.066 29.96L289.906 31.424Z" fill="#E5E5E5"/>
<path d="M296.595 19.064C298.371 19.064 299.747 19.656 300.723 20.84C301.715 22.024 302.211 23.632 302.211 25.664C302.211 26.976 301.987 28.136 301.539 29.144C301.091 30.136 300.443 30.912 299.595 31.472C298.747 32.016 297.738 32.288 296.57 32.288C294.794 32.288 293.41 31.696 292.418 30.512C291.426 29.328 290.931 27.72 290.931 25.688C290.931 24.376 291.155 23.224 291.603 22.232C292.051 21.224 292.699 20.448 293.547 19.904C294.395 19.344 295.411 19.064 296.595 19.064ZM296.595 20.84C294.403 20.84 293.306 22.456 293.306 25.688C293.306 28.904 294.394 30.512 296.57 30.512C298.746 30.512 299.835 28.896 299.835 25.664C299.835 22.448 298.755 20.84 296.595 20.84Z" fill="#E5E5E5"/>
</svg>
